<?xml version="1.0" encoding="UTF-8"?>
<svg width="512px" height="512px" viewBox="0 0 512 512" version="1.1" xmlns="http://www.w3.org/2000/svg" xmlns:xlink="http://www.w3.org/1999/xlink">
    <!-- Generator: Sketch 46.2 (44496) - http://www.bohemiancoding.com/sketch -->
    <title>glass</title>
    <desc>Created with Sketch.</desc>
    <defs></defs>
    <g id="Page-1" stroke="none" stroke-width="1" fill="none" fill-rule="evenodd">
        <g id="glass" fill="#000000">
            <path d="M312.250802,312.255569 L292.833318,326.580145 C264.855488,347.760941 236.011694,358.078242 198.615895,357.508612 C110.861434,357.508612 39.7231791,286.371548 39.7231791,198.615895 C39.7231791,110.860243 110.861434,39.7231791 198.615895,39.7231791 C286.370357,39.7231791 357.508612,110.860243 357.508612,198.615895 C358.077845,236.010899 347.762133,264.861844 326.581336,292.833318 L312.250802,312.255569 L312.250802,312.255569 Z M469.865624,512 L316.414983,358.546181 C283.457853,382.85915 242.715377,397.231791 198.615895,397.231791 C88.9235143,397.231791 0,308.310263 0,198.615895 C0,88.9215281 88.9235143,0 198.615895,0 C308.308277,0 397.231791,88.9215281 397.231791,198.615895 C397.231791,242.712994 382.860342,283.464209 358.545387,316.418161 L483.91174,441.781336 L512,469.869596 L483.907768,497.957856 L469.865624,512 L469.865624,512 Z" id="Search"></path>
        </g>
    </g>
</svg>