<?xml version="1.0" encoding="UTF-8"?>
<svg width="512px" height="512px" viewBox="0 0 512 512" version="1.1" xmlns="http://www.w3.org/2000/svg" xmlns:xlink="http://www.w3.org/1999/xlink">
    <!-- Generator: Sketch 46.2 (44496) - http://www.bohemiancoding.com/sketch -->
    <title>happy</title>
    <desc>Created with Sketch.</desc>
    <defs></defs>
    <g id="Page-1" stroke="none" stroke-width="1" fill="none" fill-rule="evenodd">
        <g id="happy" fill-rule="nonzero" fill="#000000">
            <path d="M256,512 C114.615104,512 0,397.384896 0,256 C0,114.615104 114.615104,0 256,0 C397.384896,0 512,114.615104 512,256 C512,397.384896 397.384896,512 256,512 Z M256,489.73913 C385.090557,489.73913 489.73913,385.090557 489.73913,256 C489.73913,126.909443 385.090557,22.2608696 256,22.2608696 C126.909443,22.2608696 22.2608696,126.909443 22.2608696,256 C22.2608696,385.090557 126.909443,489.73913 256,489.73913 Z M375.961353,272.077295 C375.961353,338.33012 322.252826,392.038647 256,392.038647 C189.747174,392.038647 136.038647,338.33012 136.038647,272.077295 L158.299517,272.077295 C158.299517,326.035782 202.041513,369.777778 256,369.777778 C309.958487,369.777778 353.700483,326.035782 353.700483,272.077295 L375.961353,272.077295 Z M201.584541,228.792271 C186.558127,228.792271 174.376812,216.610955 174.376812,201.584541 C174.376812,186.558127 186.558127,174.376812 201.584541,174.376812 C216.610955,174.376812 228.792271,186.558127 228.792271,201.584541 C228.792271,216.610955 216.610955,228.792271 201.584541,228.792271 Z M310.415459,228.792271 C295.389045,228.792271 283.207729,216.610955 283.207729,201.584541 C283.207729,186.558127 295.389045,174.376812 310.415459,174.376812 C325.441873,174.376812 337.623188,186.558127 337.623188,201.584541 C337.623188,216.610955 325.441873,228.792271 310.415459,228.792271 Z" id="Combined-Shape"></path>
        </g>
    </g>
</svg>