<?xml version="1.0" encoding="UTF-8"?>
<svg width="512px" height="512px" viewBox="0 0 512 512" version="1.1" xmlns="http://www.w3.org/2000/svg" xmlns:xlink="http://www.w3.org/1999/xlink">
    <!-- Generator: Sketch 46.2 (44496) - http://www.bohemiancoding.com/sketch -->
    <title>open</title>
    <desc>Created with Sketch.</desc>
    <defs></defs>
    <g id="Page-1" stroke="none" stroke-width="1" fill="none" fill-rule="evenodd">
        <g id="open" fill="#000000">
            <path d="M408.216216,207.567568 C465.532541,207.567568 512,161.101215 512,103.783784 C512,46.4663524 465.532541,0 408.216216,0 C350.899892,0 304.432432,46.4663524 304.432432,103.783784 C304.432432,161.101215 350.899892,207.567568 408.216216,207.567568 L408.216216,207.567568 Z M110.702703,69.1891892 L281.359222,69.1891892 C278.940368,78.0741881 277.426508,87.3377903 276.931114,96.8648649 L110.702703,96.8648649 C64.8513038,96.8648649 27.6756757,134.040493 27.6756757,179.891892 L27.6756757,401.297297 C27.6756757,447.147589 64.8513038,484.324324 110.702703,484.324324 L332.108108,484.324324 C377.9584,484.324324 415.135135,447.147589 415.135135,401.297297 L415.135135,235.067503 C424.661103,234.574322 433.926919,233.060739 442.810811,230.641885 L442.810811,401.297297 C442.810811,462.4384 393.249211,512 332.108108,512 L110.702703,512 C49.5607697,512 0,462.4384 0,401.297297 L0,179.891892 C0,118.749959 49.5607697,69.1891892 110.702703,69.1891892 L110.702703,69.1891892 Z" id="Notifications"></path>
        </g>
    </g>
</svg>