<?xml version="1.0" encoding="UTF-8"?>
<svg width="152px" height="46px" viewBox="0 0 152 46" version="1.1" xmlns="http://www.w3.org/2000/svg" xmlns:xlink="http://www.w3.org/1999/xlink">
    <!-- Generator: Sketch 46.2 (44496) - http://www.bohemiancoding.com/sketch -->
    <title>Group 7</title>
    <desc>Created with Sketch.</desc>
    <defs>
        <polygon id="path-1" points="0.0671843712 45.0989011 0.0671843712 0.0450989011 151.164835 0.0450989011 151.164835 45.0989011"></polygon>
    </defs>
    <g id="Page-1" stroke="none" stroke-width="1" fill="none" fill-rule="evenodd">
        <g id="Group-7">
            <g id="Download_on_the_App_Store_Badge_US-UK_135x40">
                <g id="Group-3">
                    <mask id="mask-2" fill="white">
                        <use xlink:href="#path-1"></use>
                    </mask>
                    <g id="Clip-2"></g>
                    <path d="M145.786726,45.0989011 L5.29524819,45.0989011 C2.37608726,45.0989011 0,42.6996396 0,39.7625736 L0,5.32843516 C0,2.39024176 2.37608726,0 5.29524819,0 L145.786726,0 C148.704767,0 151.164835,2.39024176 151.164835,5.32843516 L151.164835,39.7625736 C151.164835,42.6996396 148.704767,45.0989011 145.786726,45.0989011" id="Fill-1" fill="#A9AAA9" mask="url(#mask-2)"></path>
                </g>
                <path d="M150.080927,39.7637011 C150.080927,42.149433 148.161694,44.0819209 145.787846,44.0819209 L5.29524819,44.0819209 C2.92252015,44.0819209 0.996568173,42.149433 0.996568173,39.7637011 L0.996568173,5.32730769 C0.996568173,2.9427033 2.92252015,1.00345055 5.29524819,1.00345055 L145.786726,1.00345055 C148.161694,1.00345055 150.079808,2.9427033 150.079808,5.32730769 L150.079808,39.7637011 L150.080927,39.7637011" id="Fill-4" fill="#0A0B09"></path>
                <path d="M33.7355123,22.3059165 C33.7030398,18.6720725 36.6905048,16.9041956 36.8271131,16.8207626 C35.1351867,14.3369407 32.5127567,13.9975714 31.5912111,13.9716396 C29.3886834,13.7382527 27.2522204,15.2986747 26.1302414,15.2986747 C24.9858676,15.2986747 23.2569898,13.994189 21.3959827,14.0325231 C19.0008599,14.0697297 16.7580217,15.4666681 15.5285477,17.6359253 C12.9912179,22.059 14.8835777,28.5588791 17.3145322,32.1340945 C18.5305693,33.8850593 19.9515188,35.8400967 21.8102864,35.7713209 C23.6298631,35.6946527 24.309545,34.6021319 26.5064739,34.6021319 C28.6821278,34.6021319 29.3203793,35.7713209 31.2172181,35.7273495 C33.1700438,35.6946527 34.3995178,33.9684923 35.5730048,32.2017429 C36.9782779,30.1937143 37.5426266,28.2172549 37.5650214,28.1157824 C37.5191121,28.1011253 33.7724637,26.6613429 33.7355123,22.3059165" id="Fill-5" fill="#FFFFFE"></path>
                <path d="M30.1523458,11.6197319 C31.1298784,10.3874044 31.7994826,8.71085275 31.6136059,7.0094967 C30.1971354,7.07263516 28.4257074,7.99490769 27.4067445,9.2013033 C26.5042344,10.2633824 25.698022,12.0042 25.9062935,13.6412901 C27.4974434,13.7608022 29.1311433,12.8328923 30.1523458,11.6197319" id="Fill-6" fill="#FFFFFE"></path>
                <path d="M55.7126398,29.2635495 L54.4529328,25.3467099 C54.3196838,24.9453297 54.0699819,24.0027626 53.7004679,22.5190088 L53.656798,22.5190088 C53.5101122,23.1582857 53.2738471,24.0997253 52.9491227,25.3467099 L51.7118105,29.2635495 L55.7126398,29.2635495 Z M60.0684265,35.5198945 L57.5254981,35.5198945 L56.1325421,31.1126044 L51.2919082,31.1126044 L49.9650168,35.5198945 L47.4892728,35.5198945 L52.2862369,20.5154901 L55.2490676,20.5154901 L60.0684265,35.5198945 L60.0684265,35.5198945 Z" id="Fill-7" fill="#FFFFFE"></path>
                <path d="M69.9725226,30.0651824 C69.9725226,29.0121231 69.7373773,28.1439692 69.2648472,27.4607209 C68.7486473,26.7492857 68.0566483,26.3918769 67.1866107,26.3918769 C66.5976277,26.3918769 66.0623922,26.5903121 65.5842634,26.9826725 C65.1050149,27.3761604 64.7914878,27.8914154 64.644802,28.5306923 C64.5708991,28.8272176 64.5339477,29.0718791 64.5339477,29.2635495 L64.5339477,31.0675055 C64.5339477,31.8544813 64.773572,32.5185626 65.2528205,33.0597495 C65.732069,33.6020637 66.3546442,33.8726571 67.120546,33.8726571 C68.0196969,33.8726571 68.7206538,33.5231407 69.2211774,32.8263626 C69.7217009,32.1284571 69.9725226,31.2084396 69.9725226,30.0651824 Z M72.4045968,29.9772396 C72.4045968,31.8172747 71.9107917,33.2717143 70.9231814,34.3394308 C70.0385872,35.2898901 68.9412425,35.764556 67.6289078,35.764556 C66.2146768,35.764556 65.1979533,35.2526835 64.5787373,34.227811 L64.5339477,34.227811 L64.5339477,39.9271846 L62.1466631,39.9271846 L62.1466631,28.2623538 C62.1466631,27.105567 62.1164301,25.9183385 62.0582037,24.7006681 L64.1577153,24.7006681 L64.2909643,26.4155538 L64.3357538,26.4155538 C65.1307689,25.1234703 66.3400876,24.478556 67.9603507,24.478556 C69.2290155,24.478556 70.2860497,24.9825363 71.1336925,25.9916242 C71.9813353,27.0018396 72.4045968,28.3300022 72.4045968,29.9772396 L72.4045968,29.9772396 Z" id="Fill-8" fill="#FFFFFE"></path>
                <path d="M82.3310877,30.0651824 C82.3310877,29.0121231 82.0948226,28.1439692 81.6234123,27.4607209 C81.1072124,26.7492857 80.4152133,26.3918769 79.5451757,26.3918769 C78.955073,26.3918769 78.4209573,26.5903121 77.9417088,26.9826725 C77.46358,27.3761604 77.1511726,27.8914154 77.003367,28.5306923 C76.930584,28.8272176 76.8925128,29.0718791 76.8925128,29.2635495 L76.8925128,31.0675055 C76.8925128,31.8544813 77.1321371,32.5185626 77.6091461,33.0597495 C78.0883946,33.6020637 78.7120895,33.8726571 79.4791111,33.8726571 C80.3782619,33.8726571 81.0780991,33.5231407 81.5786227,32.8263626 C82.080266,32.1284571 82.3310877,31.2084396 82.3310877,30.0651824 Z M84.7631619,29.9772396 C84.7631619,31.8172747 84.2693568,33.2717143 83.2806268,34.3394308 C82.3971523,35.2898901 81.2986878,35.764556 79.9874729,35.764556 C78.5721221,35.764556 77.5553986,35.2526835 76.9373024,34.227811 L76.8925128,34.227811 L76.8925128,39.9271846 L74.5052282,39.9271846 L74.5052282,28.2623538 C74.5052282,27.105567 74.4749952,25.9183385 74.4167687,24.7006681 L76.5174001,24.7006681 L76.6495293,26.4155538 L76.6943189,26.4155538 C77.489334,25.1234703 78.6964132,24.478556 80.3189158,24.478556 C81.5853411,24.478556 82.6446147,24.9825363 83.4922575,25.9916242 C84.3387806,27.0018396 84.7631619,28.3300022 84.7631619,29.9772396 L84.7631619,29.9772396 Z" id="Fill-9" fill="#FFFFFE"></path>
                <path d="M98.5807476,31.3132945 C98.5807476,32.5884659 98.1406899,33.6268681 97.2572155,34.4285011 C96.2864013,35.3056747 94.9348757,35.7420066 93.1981597,35.7420066 C91.5958125,35.7420066 90.3092317,35.4308242 89.3361781,34.8073319 L89.8893294,32.8038132 C90.9374056,33.4419626 92.0873781,33.7610374 93.3403666,33.7610374 C94.2395175,33.7610374 94.9393547,33.5569648 95.4421177,33.1476923 C95.943761,32.7395473 96.1923432,32.1927231 96.1923432,31.5083473 C96.1923432,30.8995121 95.9874309,30.3865121 95.5731272,29.9704747 C95.1621828,29.5544374 94.4757825,29.1677143 93.5184052,28.8103055 C90.9094121,27.8305319 89.6049156,26.3952593 89.6049156,24.5067429 C89.6049156,23.2744154 90.0628891,22.2630725 90.9765965,21.4749692 C91.8880645,20.6868659 93.1041016,20.293378 94.6247079,20.293378 C95.9807124,20.293378 97.1071704,20.5301473 98.0052015,21.0048132 L97.4083803,22.9643604 C96.5685757,22.5043516 95.6190365,22.2743473 94.5564037,22.2743473 C93.7165991,22.2743473 93.0604317,22.4818022 92.5901411,22.8978396 C92.1926336,23.268778 91.99332,23.7208945 91.99332,24.256444 C91.99332,24.8494945 92.2206271,25.3399451 92.6786006,25.7244132 C93.0761081,26.081822 93.7983401,26.4674176 94.8452965,26.8834549 C96.1273983,27.4032198 97.0690992,28.0109275 97.6748783,28.7077055 C98.2795376,29.405611 98.5807476,30.2748923 98.5807476,31.3132945" id="Fill-10" fill="#FFFFFE"></path>
                <path d="M106.473791,26.5046242 L103.842404,26.5046242 L103.842404,31.7575187 C103.842404,33.0935736 104.305976,33.7610374 105.23536,33.7610374 C105.66198,33.7610374 106.016938,33.7238308 106.296873,33.6505451 L106.361818,35.4759231 C105.891527,35.6529363 105.273431,35.7420066 104.505289,35.7420066 C103.562469,35.7420066 102.82568,35.4522462 102.293804,34.8749802 C101.765287,34.2954593 101.497669,33.323578 101.497669,31.9582088 L101.497669,26.5046242 L99.9300337,26.5046242 L99.9300337,24.7006681 L101.497669,24.7006681 L101.497669,22.7196989 L103.842404,22.0071363 L103.842404,24.7006681 L106.473791,24.7006681 L106.473791,26.5046242" id="Fill-11" fill="#FFFFFE"></path>
                <path d="M115.869526,30.0990066 C115.869526,29.1023209 115.656775,28.2465692 115.227915,27.5317516 C114.727391,26.6681077 114.011878,26.2374132 113.084734,26.2374132 C112.125117,26.2374132 111.396166,26.6681077 110.895643,27.5317516 C110.466783,28.2465692 110.255152,29.1158505 110.255152,30.1441055 C110.255152,31.1419187 110.466783,31.9976703 110.895643,32.7113604 C111.411843,33.5738769 112.134075,34.0056989 113.063459,34.0056989 C113.974926,34.0056989 114.69044,33.5671121 115.20664,32.688811 C115.647817,31.9604637 115.869526,31.0956923 115.869526,30.0990066 Z M118.34639,30.021211 C118.34639,31.684233 117.874979,33.0496022 116.932159,34.1173187 C115.943429,35.2154769 114.631094,35.764556 112.995154,35.764556 C111.418561,35.764556 110.163333,35.2380264 109.227231,34.1838396 C108.291129,33.1307802 107.823078,31.8014901 107.823078,30.1993516 C107.823078,28.5228 108.304566,27.1495385 109.270901,26.081822 C110.234996,25.012978 111.536134,24.478556 113.172073,24.478556 C114.749786,24.478556 116.017331,25.0050857 116.975828,26.0592725 C117.889536,27.0830176 118.34639,28.4032879 118.34639,30.021211 L118.34639,30.021211 Z" id="Fill-12" fill="#FFFFFE"></path>
                <path d="M126.106184,26.8146791 C125.869919,26.7707077 125.619098,26.7492857 125.353719,26.7492857 C124.513915,26.7492857 123.864466,27.0683604 123.407612,27.7065099 C123.008985,28.2702462 122.810791,28.9828088 122.810791,29.8430703 L122.810791,35.5198945 L120.424626,35.5198945 L120.445901,28.1078901 C120.445901,26.859778 120.415668,25.7244132 120.356322,24.7006681 L122.436798,24.7006681 L122.524138,26.7707077 L122.589083,26.7707077 C122.841024,26.0592725 123.239651,25.4865165 123.783845,25.0580769 C124.314601,24.6713538 124.890147,24.478556 125.509363,24.478556 C125.729952,24.478556 125.929266,24.4943407 126.106184,24.5225275 L126.106184,26.8146791" id="Fill-13" fill="#FFFFFE"></path>
                <path d="M134.50647,28.9749165 C134.522147,28.2623538 134.366503,27.6478813 134.042898,27.126989 C133.629714,26.4595253 132.994822,26.1257934 132.140461,26.1257934 C131.360002,26.1257934 130.72511,26.451633 130.240263,27.105567 C129.841635,27.6253319 129.60537,28.2488242 129.533707,28.9749165 L134.50647,28.9749165 Z M136.782901,29.5984088 C136.782901,30.0291033 136.754907,30.3921495 136.695561,30.6886747 L129.533707,30.6886747 C129.561701,31.7575187 129.9077,32.5749363 130.571706,33.1386725 C131.175245,33.6426527 131.956823,33.8952066 132.914201,33.8952066 C133.974594,33.8952066 134.942049,33.7238308 135.812087,33.3822066 L136.18608,35.0519934 C135.169356,35.4973451 133.968995,35.7205846 132.583878,35.7205846 C130.917705,35.7205846 129.609849,35.2267516 128.658071,34.2390857 C127.709651,33.2525473 127.232642,31.927767 127.232642,30.2658725 C127.232642,28.6332923 127.67382,27.2746879 128.560653,26.1923143 C129.487798,25.0344 130.740786,24.4560066 132.31738,24.4560066 C133.865979,24.4560066 135.038347,25.0344 135.834481,26.1923143 C136.466014,27.1123319 136.782901,28.2488242 136.782901,29.5984088 L136.782901,29.5984088 Z" id="Fill-14" fill="#FFFFFE"></path>
                <path d="M53.6859113,11.3175692 C53.6859113,10.4573077 53.4597239,9.79773626 53.0062294,9.33772747 C52.5538546,8.87884615 51.8932083,8.64884176 51.0242904,8.64884176 C50.6547764,8.64884176 50.3390098,8.67477363 50.0792303,8.72550989 L50.0792303,14.2377231 C50.2236767,14.2602725 50.4879352,14.2704198 50.8720059,14.2704198 C51.770037,14.2704198 52.4631557,14.0189934 52.9524819,13.5161407 C53.4406883,13.0132879 53.6859113,12.2804308 53.6859113,11.3175692 Z M54.9232234,11.2848725 C54.9232234,12.6119077 54.5290751,13.6108484 53.7396588,14.2816945 C53.0073491,14.9006769 51.9693506,15.2107319 50.6223039,15.2107319 C49.9560589,15.2107319 49.383872,15.1814176 48.9057433,15.1239165 L48.9057433,7.87201319 C49.5294382,7.77054066 50.2012819,7.7198044 50.9268731,7.7198044 C52.2078551,7.7198044 53.1753101,8.00054505 53.8269985,8.56202637 C54.5570686,9.19566593 54.9232234,10.1032813 54.9232234,11.2848725 L54.9232234,11.2848725 Z" id="Fill-15" fill="#FFFFFE"></path>
                <path d="M60.2666204,12.4822484 C60.2666204,11.9929253 60.1613649,11.572378 59.9508539,11.2217341 C59.7056309,10.7966769 59.3540327,10.5847121 58.8982987,10.5847121 C58.4268884,10.5847121 58.0685718,10.7966769 57.8222291,11.2217341 C57.6128378,11.572378 57.5075823,11.9996901 57.5075823,12.5036703 C57.5075823,12.9941209 57.6128378,13.4146681 57.8222291,13.7664396 C58.0764099,14.1892418 58.4302476,14.4012066 58.8871013,14.4012066 C59.3361169,14.4012066 59.6865954,14.1858593 59.9407762,13.7551648 C60.1580057,13.3966286 60.2666204,12.9726989 60.2666204,12.4822484 Z M61.4837773,12.4439143 C61.4837773,13.2613319 61.2519912,13.9310505 60.788419,14.4564527 C60.3024521,14.9965121 59.6586019,15.265978 58.8546289,15.265978 C58.0797691,15.265978 57.4627927,15.0077868 57.0025797,14.4891495 C56.5434865,13.9716396 56.3128202,13.318833 56.3128202,12.5318571 C56.3128202,11.7076747 56.5490852,11.0334462 57.0238548,10.508044 C57.4986243,9.98264176 58.1368759,9.72106813 58.9408488,9.72106813 C59.7168283,9.72106813 60.3382838,9.98038681 60.8096941,10.4978967 C61.2575899,11.0007495 61.4837773,11.6501736 61.4837773,12.4439143 L61.4837773,12.4439143 Z" id="Fill-16" fill="#FFFFFE"></path>
                <path d="M70.280451,9.83043297 L68.6288352,15.1453385 L67.555005,15.1453385 L66.8697244,12.8374022 C66.6961648,12.2612637 66.5550776,11.6896352 66.4453431,11.1202615 L66.4251878,11.1202615 C66.3232915,11.7042923 66.1822043,12.2770484 66.0008065,12.8374022 L65.2729758,15.1453385 L64.1868285,15.1453385 L62.6337498,9.83043297 L63.8397092,9.83043297 L64.4365304,12.3559714 C64.5809768,12.9546593 64.7007889,13.5229055 64.7959668,14.0629648 L64.8161221,14.0629648 C64.9034618,13.6187407 65.0479082,13.0527495 65.2517008,12.3672462 L66.0008065,9.83043297 L66.9559443,9.83043297 L67.6736974,12.3131275 C67.847257,12.9185802 67.9883442,13.5014835 68.0969589,14.0629648 L68.1294313,14.0629648 C68.2089328,13.5161407 68.328745,12.9332374 68.4888677,12.3131275 L69.1293587,9.83043297 L70.280451,9.83043297" id="Fill-17" fill="#FFFFFE"></path>
                <path d="M76.3639958,15.1453385 L75.1905088,15.1453385 L75.1905088,12.1011626 C75.1905088,11.1631055 74.8366711,10.6940769 74.1267562,10.6940769 C73.7785172,10.6940769 73.4963429,10.8237363 73.2791134,11.0819275 C73.0618839,11.3401187 72.9532692,11.6434088 72.9532692,11.9929253 L72.9532692,15.1453385 L71.7797822,15.1453385 L71.7797822,11.3502659 C71.7797822,10.8834923 71.7652256,10.3772571 71.7372321,9.83043297 L72.7685122,9.83043297 L72.8233794,10.6613802 L72.8558519,10.6613802 C72.9924601,10.403189 73.1962527,10.1889692 73.4638704,10.0198484 C73.7818764,9.82028571 74.1379536,9.72106813 74.527623,9.72106813 C75.0203083,9.72106813 75.430133,9.88116923 75.7559772,10.2024989 C76.1613229,10.5959868 76.3639958,11.1822725 76.3639958,11.9624835 L76.3639958,15.1453385" id="Fill-18" fill="#FFFFFE"></path>
                <polygon id="Fill-19" fill="#FFFFFE" points="78.4276757 15.1453385 79.600043 15.1453385 79.600043 7.39170989 78.4276757 7.39170989"></polygon>
                <path d="M85.2905592,12.4822484 C85.2905592,11.9929253 85.1853037,11.572378 84.9759124,11.2217341 C84.7306895,10.7966769 84.3779715,10.5847121 83.9233573,10.5847121 C83.4508272,10.5847121 83.0925105,10.7966769 82.8472876,11.2217341 C82.6378963,11.572378 82.5326408,11.9996901 82.5326408,12.5036703 C82.5326408,12.9941209 82.6378963,13.4146681 82.8472876,13.7664396 C83.1014685,14.1892418 83.4553061,14.4012066 83.9121599,14.4012066 C84.3611754,14.4012066 84.7105341,14.1858593 84.964715,13.7551648 C85.1830642,13.3966286 85.2905592,12.9726989 85.2905592,12.4822484 Z M86.5088358,12.4439143 C86.5088358,13.2613319 86.2770497,13.9310505 85.8134776,14.4564527 C85.3275106,14.9965121 84.6825407,15.265978 83.8796874,15.265978 C83.1037079,15.265978 82.4867315,15.0077868 82.0276383,14.4891495 C81.5685451,13.9716396 81.3389985,13.318833 81.3389985,12.5318571 C81.3389985,11.7076747 81.5752635,11.0334462 82.0489133,10.508044 C82.5236829,9.98264176 83.1630541,9.72106813 83.9647876,9.72106813 C84.7418869,9.72106813 85.3622225,9.98038681 85.8347526,10.4978967 C86.2837682,11.0007495 86.5088358,11.6501736 86.5088358,12.4439143 L86.5088358,12.4439143 Z" id="Fill-20" fill="#FFFFFE"></path>
                <path d="M90.9698781,13.318833 L90.9698781,12.4991604 C89.6754592,12.476611 89.0282497,12.8340198 89.0282497,13.5702593 C89.0282497,13.8476176 89.1021525,14.0550725 89.2533174,14.1937516 C89.4044822,14.3324308 89.5970774,14.4012066 89.826624,14.4012066 C90.0841641,14.4012066 90.3249081,14.3200286 90.5432573,14.1554176 C90.7649657,13.9919341 90.9004542,13.7822242 90.9508425,13.5274154 C90.9631596,13.4687868 90.9698781,13.3988835 90.9698781,13.318833 Z M92.1881547,15.1453385 L91.1344798,15.1453385 L91.0460204,14.5331209 L91.0135479,14.5331209 C90.6529918,15.0213165 90.1390313,15.265978 89.4716666,15.265978 C88.9733825,15.265978 88.571396,15.1058769 88.2668269,14.7845473 C87.9913709,14.4925319 87.853643,14.1317407 87.853643,13.7021736 C87.853643,13.0527495 88.1223805,12.557789 88.6632147,12.2139099 C89.2029291,11.8722857 89.9621125,11.7042923 90.9396451,11.7110571 L90.9396451,11.612967 C90.9396451,10.9128066 90.57461,10.5632901 89.8434201,10.5632901 C89.3227412,10.5632901 88.863648,10.6940769 88.46838,10.956778 L88.2298755,10.1799495 C88.7192016,9.8744044 89.3249807,9.72106813 90.0404943,9.72106813 C91.4200133,9.72106813 92.1120124,10.4539253 92.1120124,11.9196396 L92.1120124,13.8769319 C92.1120124,14.4090989 92.1377664,14.8319011 92.1881547,15.1453385 L92.1881547,15.1453385 Z" id="Fill-21" fill="#FFFFFE"></path>
                <path d="M97.6401664,12.9039231 L97.6401664,12.0177297 C97.6401664,11.8643934 97.628969,11.7403714 97.6076939,11.6456637 C97.5416293,11.3615407 97.3994224,11.1225165 97.1833127,10.9297187 C96.9649635,10.7357934 96.7018247,10.6399582 96.3983753,10.6399582 C95.9605571,10.6399582 95.6179168,10.8147165 95.3659754,11.164233 C95.1162735,11.5148769 94.9897429,11.9624835 94.9897429,12.5093077 C94.9897429,13.0347099 95.1095551,13.4608945 95.3502991,13.788989 C95.6044799,14.1385055 95.9471202,14.3143912 96.3759805,14.3143912 C96.7611709,14.3143912 97.0690992,14.1678198 97.3031248,13.8769319 C97.5293122,13.6074659 97.6401664,13.2827538 97.6401664,12.9039231 Z M98.8562035,15.1453385 L97.8148457,15.1453385 L97.7610982,14.2918418 L97.7275061,14.2918418 C97.3949434,14.9412659 96.829475,15.265978 96.0333402,15.265978 C95.3962084,15.265978 94.8676913,15.0145516 94.447789,14.5116989 C94.0278867,14.0077187 93.8173757,13.3560396 93.8173757,12.5532791 C93.8173757,11.6930176 94.0446828,10.9962396 94.5015365,10.4652 C94.9438336,9.96911209 95.4857875,9.72106813 96.1318772,9.72106813 C96.8395526,9.72106813 97.336717,9.96121978 97.6188913,10.4426505 L97.6401664,10.4426505 L97.6401664,7.39170989 L98.8147731,7.39170989 L98.8147731,13.7134484 C98.8147731,14.2309582 98.82821,14.7078791 98.8562035,15.1453385 L98.8562035,15.1453385 Z" id="Fill-22" fill="#FFFFFE"></path>
                <path d="M107.676392,12.4822484 C107.676392,11.9929253 107.571136,11.572378 107.361745,11.2217341 C107.114282,10.7966769 106.764924,10.5847121 106.30695,10.5847121 C105.837779,10.5847121 105.478343,10.7966769 105.230881,11.2217341 C105.021489,11.572378 104.916234,11.9996901 104.916234,12.5036703 C104.916234,12.9941209 105.021489,13.4146681 105.230881,13.7664396 C105.485061,14.1892418 105.838899,14.4012066 106.296873,14.4012066 C106.744768,14.4012066 107.097486,14.1858593 107.350547,13.7551648 C107.566657,13.3966286 107.676392,12.9726989 107.676392,12.4822484 Z M108.892429,12.4439143 C108.892429,13.2613319 108.660643,13.9310505 108.197071,14.4564527 C107.711104,14.9965121 107.068373,15.265978 106.26328,15.265978 C105.48954,15.265978 104.872564,15.0077868 104.411231,14.4891495 C103.952138,13.9716396 103.722591,13.318833 103.722591,12.5318571 C103.722591,11.7076747 103.958856,11.0334462 104.433626,10.508044 C104.907276,9.98264176 105.546647,9.72106813 106.35174,9.72106813 C107.12548,9.72106813 107.749175,9.98038681 108.218346,10.4978967 C108.667361,11.0007495 108.892429,11.6501736 108.892429,12.4439143 L108.892429,12.4439143 Z" id="Fill-23" fill="#FFFFFE"></path>
                <path d="M115.202161,15.1453385 L114.029794,15.1453385 L114.029794,12.1011626 C114.029794,11.1631055 113.675956,10.6940769 112.964921,10.6940769 C112.616682,10.6940769 112.334508,10.8237363 112.118398,11.0819275 C111.902289,11.3401187 111.792554,11.6434088 111.792554,11.9929253 L111.792554,15.1453385 L110.617947,15.1453385 L110.617947,11.3502659 C110.617947,10.8834923 110.604511,10.3772571 110.576517,9.83043297 L111.606677,9.83043297 L111.661545,10.6613802 L111.694017,10.6613802 C111.831745,10.403189 112.035538,10.1889692 112.302036,10.0198484 C112.621161,9.82028571 112.976119,9.72106813 113.366908,9.72106813 C113.859593,9.72106813 114.268298,9.88116923 114.594142,10.2024989 C115.000608,10.5959868 115.202161,11.1822725 115.202161,11.9624835 L115.202161,15.1453385" id="Fill-24" fill="#FFFFFE"></path>
                <path d="M123.099684,10.7154989 L121.806385,10.7154989 L121.806385,13.297411 C121.806385,13.9536 122.035931,14.2816945 122.491665,14.2816945 C122.701057,14.2816945 122.875736,14.2636549 123.013464,14.2264484 L123.044817,15.1239165 C122.813031,15.2107319 122.508461,15.2547033 122.132229,15.2547033 C121.668657,15.2547033 121.308101,15.1126418 121.048321,14.8285187 C120.785182,14.5432681 120.656412,14.0663473 120.656412,13.3955011 L120.656412,10.7154989 L119.883792,10.7154989 L119.883792,9.83043297 L120.656412,9.83043297 L120.656412,8.8562967 L121.806385,8.50678022 L121.806385,9.83043297 L123.099684,9.83043297 L123.099684,10.7154989" id="Fill-25" fill="#FFFFFE"></path>
                <path d="M129.311999,15.1453385 L128.138512,15.1453385 L128.138512,12.1237121 C128.138512,11.1709978 127.783554,10.6940769 127.074759,10.6940769 C126.530566,10.6940769 126.158812,10.9703077 125.95502,11.5238967 C125.920308,11.6400264 125.901272,11.7820879 125.901272,11.9489538 L125.901272,15.1453385 L124.728905,15.1453385 L124.728905,7.39170989 L125.901272,7.39170989 L125.901272,10.5948593 L125.922547,10.5948593 C126.292061,10.011956 126.821698,9.72106813 127.508098,9.72106813 C127.994065,9.72106813 128.396052,9.88116923 128.715178,10.2024989 C129.113805,10.6027516 129.311999,11.1980571 129.311999,11.985033 L129.311999,15.1453385" id="Fill-26" fill="#FFFFFE"></path>
                <path d="M134.600528,11.9297868 C134.609486,11.5802703 134.532224,11.2769802 134.373221,11.0221714 C134.169429,10.6940769 133.859261,10.5305934 133.439359,10.5305934 C133.056408,10.5305934 132.744,10.6906945 132.505496,11.0120242 C132.310661,11.266833 132.195328,11.5735055 132.157257,11.9297868 L134.600528,11.9297868 Z M135.720268,12.2364593 C135.720268,12.4484242 135.704592,12.6265648 135.676598,12.7720088 L132.157257,12.7720088 C132.172933,13.297411 132.340894,13.6976637 132.666738,13.975022 C132.964589,14.2230659 133.349779,14.3470879 133.82007,14.3470879 C134.340749,14.3470879 134.814399,14.2636549 135.243259,14.0956615 L135.426896,14.9153341 C134.926373,15.1340637 134.338509,15.244556 133.655468,15.244556 C132.838058,15.244556 132.195328,15.0021495 131.729516,14.5162088 C131.261465,14.0313956 131.029679,13.380844 131.029679,12.5645538 C131.029679,11.7629209 131.245789,11.0954571 131.681368,10.5632901 C132.135982,9.99391648 132.750719,9.70979341 133.526698,9.70979341 C134.285882,9.70979341 134.862547,9.99391648 135.252217,10.5632901 C135.564624,11.0154066 135.720268,11.5735055 135.720268,12.2364593 L135.720268,12.2364593 Z" id="Fill-27" fill="#FFFFFE"></path>
            </g>
        </g>
    </g>
</svg>