<?xml version="1.0" encoding="UTF-8"?>
<svg width="152px" height="46px" viewBox="0 0 152 46" version="1.1" xmlns="http://www.w3.org/2000/svg" xmlns:xlink="http://www.w3.org/1999/xlink">
    <!-- Generator: Sketch 46.2 (44496) - http://www.bohemiancoding.com/sketch -->
    <title>google button</title>
    <desc>Created with Sketch.</desc>
    <defs>
        <linearGradient x1="90.7692308%" y1="37.788736%" x2="-38.3307692%" y2="55.9401472%" id="linearGradient-1">
            <stop stop-color="#00A0FF" offset="0%"></stop>
            <stop stop-color="#00A1FF" offset="0.7%"></stop>
            <stop stop-color="#00BEFF" offset="26.0303731%"></stop>
            <stop stop-color="#00D2FF" offset="51.2%"></stop>
            <stop stop-color="#00DFFF" offset="76%"></stop>
            <stop stop-color="#00E3FF" offset="100%"></stop>
        </linearGradient>
        <linearGradient x1="107.724138%" y1="49.4235294%" x2="-130.669951%" y2="49.4235294%" id="linearGradient-2">
            <stop stop-color="#FFE000" offset="0%"></stop>
            <stop stop-color="#FFBD00" offset="40.9%"></stop>
            <stop stop-color="#FFA500" offset="77.5%"></stop>
            <stop stop-color="#FF9C00" offset="100%"></stop>
        </linearGradient>
        <linearGradient x1="71.6744222%" y1="17.81427%" x2="-9.49498695%" y2="194.389687%" id="linearGradient-3">
            <stop stop-color="#FF3A44" offset="0%"></stop>
            <stop stop-color="#C31162" offset="100%"></stop>
        </linearGradient>
        <linearGradient x1="9.52965905%" y1="-54.5282125%" x2="45.4416537%" y2="24.6924404%" id="linearGradient-4">
            <stop stop-color="#32A071" offset="0%"></stop>
            <stop stop-color="#2DA771" offset="6.9%"></stop>
            <stop stop-color="#15CF74" offset="47.6%"></stop>
            <stop stop-color="#06E775" offset="80.1%"></stop>
            <stop stop-color="#00F076" offset="100%"></stop>
        </linearGradient>
    </defs>
    <g id="Page-1" stroke="none" stroke-width="1" fill="none" fill-rule="evenodd">
        <g id="google-button" fill-rule="nonzero">
            <path d="M146.37037,46 L5.62962963,46 C2.47703704,46 0,43.47 0,40.25 L0,5.75 C0,2.53 2.47703704,0 5.62962963,0 L146.37037,0 C149.522963,0 152,2.53 152,5.75 L152,40.25 C152,43.47 149.522963,46 146.37037,46 Z" id="Shape" fill="#000000"></path>
            <path d="M146.37037,0.92 C148.96,0.92 151.099259,3.105 151.099259,5.75 L151.099259,40.25 C151.099259,42.895 148.96,45.08 146.37037,45.08 L5.62962963,45.08 C3.04,45.08 0.900740741,42.895 0.900740741,40.25 L0.900740741,5.75 C0.900740741,3.105 3.04,0.92 5.62962963,0.92 L146.37037,0.92 L146.37037,0.92 Z M146.37037,0 L5.62962963,0 C2.47703704,0 0,2.645 0,5.75 L0,40.25 C0,43.47 2.47703704,46 5.62962963,46 L146.37037,46 C149.522963,46 152,43.47 152,40.25 L152,5.75 C152,2.645 149.522963,0 146.37037,0 Z" id="Shape" fill="#A6A6A6"></path>
            <path d="M53.1828004,11.4847369 C53.1828004,12.3855005 52.9584004,13.1736687 52.3974004,13.736646 C51.7242004,14.4122188 50.9388004,14.7500052 49.9290004,14.7500052 C48.9192004,14.7500052 48.1338004,14.4122188 47.4606004,13.736646 C46.7874004,13.0610733 46.4508004,12.2729051 46.4508004,11.2595459 C46.4508004,10.2461868 46.7874004,9.45801858 47.4606004,8.78244583 C48.1338004,8.10687307 48.9192004,7.76908669 49.9290004,7.76908669 C50.3778004,7.76908669 50.8266004,7.88168215 51.2754004,8.10687307 C51.7242004,8.33206399 52.0608004,8.55725491 52.2852004,8.89504129 L51.7242004,9.45801858 C51.2754004,8.89504129 50.7144004,8.66985037 49.9290004,8.66985037 C49.2558004,8.66985037 48.5826004,8.89504129 48.1338004,9.45801858 C47.5728004,9.90840042 47.3484004,10.5839732 47.3484004,11.3721414 C47.3484004,12.1603096 47.5728004,12.8358824 48.1338004,13.2862642 C48.6948004,13.736646 49.2558004,14.0744324 49.9290004,14.0744324 C50.7144004,14.0744324 51.2754004,13.8492415 51.8364004,13.2862642 C52.1730004,12.9484778 52.3974004,12.498096 52.3974004,11.9351187 L49.9290004,11.9351187 L49.9290004,11.034355 L53.1828004,11.034355 L53.1828004,11.4847369 L53.1828004,11.4847369 Z M58.3440005,8.66985037 L55.3146004,8.66985037 L55.3146004,10.8091641 L58.1196005,10.8091641 L58.1196005,11.5973323 L55.3146004,11.5973323 L55.3146004,13.736646 L58.3440005,13.736646 L58.3440005,14.6374097 L54.4170004,14.6374097 L54.4170004,7.88168215 L58.3440005,7.88168215 L58.3440005,8.66985037 Z M62.0466005,14.6374097 L61.1490005,14.6374097 L61.1490005,8.66985037 L59.2416005,8.66985037 L59.2416005,7.88168215 L63.9540005,7.88168215 L63.9540005,8.66985037 L62.0466005,8.66985037 L62.0466005,14.6374097 Z M67.2078005,14.6374097 L67.2078005,7.88168215 L68.1054005,7.88168215 L68.1054005,14.6374097 L67.2078005,14.6374097 Z M71.9202006,14.6374097 L71.0226006,14.6374097 L71.0226006,8.66985037 L69.1152006,8.66985037 L69.1152006,7.88168215 L73.7154006,7.88168215 L73.7154006,8.66985037 L71.8080006,8.66985037 L71.8080006,14.6374097 L71.9202006,14.6374097 Z M82.5792007,13.736646 C81.9060007,14.4122188 81.1206007,14.7500052 80.1108006,14.7500052 C79.1010006,14.7500052 78.3156006,14.4122188 77.6424006,13.736646 C76.9692006,13.0610733 76.6326006,12.2729051 76.6326006,11.2595459 C76.6326006,10.2461868 76.9692006,9.45801858 77.6424006,8.78244583 C78.3156006,8.10687307 79.1010006,7.76908669 80.1108006,7.76908669 C81.1206007,7.76908669 81.9060007,8.10687307 82.5792007,8.78244583 C83.2524007,9.45801858 83.5890007,10.2461868 83.5890007,11.2595459 C83.5890007,12.2729051 83.2524007,13.0610733 82.5792007,13.736646 Z M78.3156006,13.1736687 C78.7644006,13.6240506 79.4376006,13.961837 80.1108006,13.961837 C80.7840007,13.961837 81.4572007,13.736646 81.9060007,13.1736687 C82.3548007,12.7232869 82.6914007,12.0477141 82.6914007,11.2595459 C82.6914007,10.4713777 82.4670007,9.79580496 81.9060007,9.34542312 C81.4572007,8.89504129 80.7840007,8.55725491 80.1108006,8.55725491 C79.4376006,8.55725491 78.7644006,8.78244583 78.3156006,9.34542312 C77.8668006,9.79580496 77.5302006,10.4713777 77.5302006,11.2595459 C77.5302006,12.0477141 77.7546006,12.7232869 78.3156006,13.1736687 Z M84.8232007,14.6374097 L84.8232007,7.88168215 L85.8330007,7.88168215 L89.0868007,13.1736687 L89.0868007,7.88168215 L89.9844007,7.88168215 L89.9844007,14.6374097 L89.0868007,14.6374097 L85.6086007,9.12023221 L85.6086007,14.6374097 L84.8232007,14.6374097 L84.8232007,14.6374097 Z" id="Shape" stroke="#FFFFFF" stroke-width="0.2" fill="#FFFFFF"></path>
            <path d="M76.4082006,24.5458101 C73.7154006,24.5458101 71.5836006,26.5725284 71.5836006,29.3874149 C71.5836006,32.0897059 73.7154006,34.2290196 76.4082006,34.2290196 C79.1010006,34.2290196 81.2328007,32.2023014 81.2328007,29.3874149 C81.2328007,26.4599329 79.1010006,24.5458101 76.4082006,24.5458101 Z M76.4082006,32.2023014 C74.9496006,32.2023014 73.7154006,30.9637513 73.7154006,29.2748194 C73.7154006,27.5858875 74.9496006,26.3473375 76.4082006,26.3473375 C77.8668006,26.3473375 79.1010006,27.4732921 79.1010006,29.2748194 C79.1010006,30.9637513 77.8668006,32.2023014 76.4082006,32.2023014 Z M65.9736005,24.5458101 C63.2808005,24.5458101 61.1490005,26.5725284 61.1490005,29.3874149 C61.1490005,32.0897059 63.2808005,34.2290196 65.9736005,34.2290196 C68.6664006,34.2290196 70.7982006,32.2023014 70.7982006,29.3874149 C70.7982006,26.4599329 68.6664006,24.5458101 65.9736005,24.5458101 Z M65.9736005,32.2023014 C64.5150005,32.2023014 63.2808005,30.9637513 63.2808005,29.2748194 C63.2808005,27.5858875 64.5150005,26.3473375 65.9736005,26.3473375 C67.4322005,26.3473375 68.6664006,27.4732921 68.6664006,29.2748194 C68.6664006,30.9637513 67.4322005,32.2023014 65.9736005,32.2023014 Z M53.5194004,26.0095511 L53.5194004,28.0362694 L58.3440005,28.0362694 C58.2318005,29.162224 57.7830005,30.0629876 57.2220005,30.6259649 C56.5488005,31.3015377 55.4268004,32.0897059 53.5194004,32.0897059 C50.4900004,32.0897059 48.2460004,29.7252013 48.2460004,26.6851239 C48.2460004,23.6450465 50.6022004,21.2805418 53.5194004,21.2805418 C55.0902004,21.2805418 56.3244005,21.9561146 57.2220005,22.7442828 L58.6806005,21.2805418 C57.4464005,20.1545872 55.8756005,19.2538235 53.6316004,19.2538235 C49.5924004,19.2538235 46.1142004,22.6316873 46.1142004,26.6851239 C46.1142004,30.7385604 49.5924004,34.1164242 53.6316004,34.1164242 C55.8756005,34.1164242 57.4464005,33.4408514 58.7928005,31.9771105 C60.1392005,30.6259649 60.5880005,28.7118421 60.5880005,27.2481012 C60.5880005,26.7977193 60.5880005,26.3473375 60.4758005,26.0095511 L53.5194004,26.0095511 L53.5194004,26.0095511 Z M104.458201,27.5858875 C104.009401,26.4599329 102.887401,24.5458101 100.419001,24.5458101 C97.9506008,24.5458101 95.9310008,26.4599329 95.9310008,29.3874149 C95.9310008,32.0897059 97.9506008,34.2290196 100.643401,34.2290196 C102.775201,34.2290196 104.121601,32.8778741 104.570401,32.0897059 L102.999601,30.9637513 C102.438601,31.7519195 101.765401,32.3148968 100.643401,32.3148968 C99.5214008,32.3148968 98.8482008,31.864515 98.2872008,30.8511559 L104.682601,28.1488648 L104.458201,27.5858875 L104.458201,27.5858875 Z M97.9506008,29.162224 C97.9506008,27.3606966 99.4092008,26.3473375 100.419001,26.3473375 C101.204401,26.3473375 101.989801,26.7977193 102.214201,27.3606966 L97.9506008,29.162224 Z M92.6772007,33.7786378 L94.8090008,33.7786378 L94.8090008,19.7042054 L92.6772007,19.7042054 L92.6772007,33.7786378 Z M89.3112007,25.5591693 C88.7502007,24.996192 87.8526007,24.4332147 86.7306007,24.4332147 C84.3744007,24.4332147 82.1304007,26.5725284 82.1304007,29.2748194 C82.1304007,31.9771105 84.2622007,34.0038287 86.7306007,34.0038287 C87.8526007,34.0038287 88.7502007,33.4408514 89.1990007,32.8778741 L89.3112007,32.8778741 L89.3112007,33.5534469 C89.3112007,35.3549742 88.3014007,36.3683334 86.7306007,36.3683334 C85.4964007,36.3683334 84.5988007,35.4675697 84.3744007,34.6794015 L82.5792007,35.4675697 C83.1402007,36.7061197 84.4866007,38.2824562 86.8428007,38.2824562 C89.3112007,38.2824562 91.3308007,36.8187152 91.3308007,33.328256 L91.3308007,24.7710011 L89.3112007,24.7710011 L89.3112007,25.5591693 L89.3112007,25.5591693 Z M86.8428007,32.2023014 C85.3842007,32.2023014 84.1500007,30.9637513 84.1500007,29.2748194 C84.1500007,27.5858875 85.3842007,26.3473375 86.8428007,26.3473375 C88.3014007,26.3473375 89.4234007,27.5858875 89.4234007,29.2748194 C89.4234007,30.9637513 88.3014007,32.2023014 86.8428007,32.2023014 Z M114.219601,19.7042054 L109.170601,19.7042054 L109.170601,33.7786378 L111.302401,33.7786378 L111.302401,28.4866512 L114.219601,28.4866512 C116.575801,28.4866512 118.819801,26.7977193 118.819801,24.0954283 C118.819801,21.3931373 116.575801,19.7042054 114.219601,19.7042054 L114.219601,19.7042054 Z M114.331801,26.4599329 L111.302401,26.4599329 L111.302401,21.6183282 L114.331801,21.6183282 C115.902601,21.6183282 116.800201,22.9694737 116.800201,23.9828328 C116.688001,25.2213829 115.790401,26.4599329 114.331801,26.4599329 Z M127.234801,24.4332147 C125.664001,24.4332147 124.093201,25.1087874 123.532201,26.5725284 L125.439601,27.3606966 C125.888401,26.5725284 126.561601,26.3473375 127.347001,26.3473375 C128.469001,26.3473375 129.478801,27.0229102 129.591001,28.1488648 L129.591001,28.2614603 C129.254401,28.0362694 128.356801,27.698483 127.459201,27.698483 C125.439601,27.698483 123.420001,28.8244376 123.420001,30.8511559 C123.420001,32.7652787 125.103001,34.0038287 126.898201,34.0038287 C128.356801,34.0038287 129.030001,33.328256 129.591001,32.6526832 L129.703201,32.6526832 L129.703201,33.7786378 L131.722801,33.7786378 L131.722801,28.3740558 C131.498401,25.8969556 129.591001,24.4332147 127.234801,24.4332147 L127.234801,24.4332147 Z M127.010401,32.2023014 C126.337201,32.2023014 125.327401,31.864515 125.327401,30.9637513 C125.327401,29.8377967 126.561601,29.5000103 127.571401,29.5000103 C128.469001,29.5000103 128.917801,29.7252013 129.478801,29.9503922 C129.254401,31.3015377 128.132401,32.2023014 127.010401,32.2023014 L127.010401,32.2023014 Z M138.791401,24.7710011 L136.435201,30.8511559 L136.323001,30.8511559 L133.854601,24.7710011 L131.610601,24.7710011 L135.313201,33.328256 L133.181401,38.0572653 L135.313201,38.0572653 L141.035401,24.7710011 L138.791401,24.7710011 L138.791401,24.7710011 Z M119.941801,33.7786378 L122.073601,33.7786378 L122.073601,19.7042054 L119.941801,19.7042054 L119.941801,33.7786378 Z" id="Shape" fill="#FFFFFF"></path>
            <path d="M11.6688001,8.44465945 C11.3322001,8.78244583 11.2200001,9.34542312 11.2200001,10.0209959 L11.2200001,34.9045924 C11.2200001,35.5801651 11.4444001,36.1431424 11.7810001,36.4809288 L11.8932001,36.5935243 L25.8060002,22.6316873 L25.8060002,22.4064964 L11.6688001,8.44465945 Z" id="Shape" fill="url(#linearGradient-1)"></path>
            <path d="M30.2940002,27.3606966 L25.6938002,22.7442828 L25.6938002,22.4064964 L30.2940002,17.7900826 L30.4062002,17.902678 L35.9040003,21.0553509 C37.4748003,21.9561146 37.4748003,23.4198555 35.9040003,24.3206192 L30.2940002,27.3606966 L30.2940002,27.3606966 Z" id="Shape" fill="url(#linearGradient-2)"></path>
            <path d="M30.4062002,27.2481012 L25.6938002,22.5190919 L11.6688001,36.5935243 C12.2298001,37.1565016 13.0152001,37.1565016 14.0250001,36.7061197 L30.4062002,27.2481012" id="Shape" fill="url(#linearGradient-3)"></path>
            <path d="M30.4062002,17.7900826 L14.0250001,8.44465945 C13.0152001,7.88168215 12.2298001,7.99427761 11.6688001,8.55725491 L25.6938002,22.5190919 L30.4062002,17.7900826 L30.4062002,17.7900826 Z" id="Shape" fill="url(#linearGradient-4)"></path>
            <path d="M30.2940002,27.1355057 L14.0250001,36.3683334 C13.1274001,36.9313107 12.3420001,36.8187152 11.7810001,36.3683334 L11.6688001,36.4809288 L11.7810001,36.5935243 C12.3420001,37.0439061 13.1274001,37.1565016 14.0250001,36.5935243 L30.2940002,27.1355057 Z" id="Shape" fill="#000000" opacity="0.2"></path>
            <path d="M11.6688001,36.3683334 C11.3322001,36.030547 11.2200001,35.4675697 11.2200001,34.7919969 L11.2200001,34.9045924 C11.2200001,35.5801651 11.4444001,36.1431424 11.7810001,36.4809288 L11.7810001,36.3683334 L11.6688001,36.3683334 Z M35.9040003,23.9828328 L30.2940002,27.1355057 L30.4062002,27.2481012 L35.9040003,24.0954283 C36.6894003,23.6450465 37.0260003,23.0820692 37.0260003,22.5190919 C37.0260003,23.0820692 36.5772003,23.532451 35.9040003,23.9828328 L35.9040003,23.9828328 Z" id="Shape" fill="#000000" opacity="0.12"></path>
            <path d="M14.0250001,8.55725491 L35.9040003,21.0553509 C36.5772003,21.5057327 37.0260003,21.9561146 37.0260003,22.5190919 C37.0260003,21.9561146 36.6894003,21.3931373 35.9040003,20.9427554 L14.0250001,8.44465945 C12.4542001,7.54389578 11.2200001,8.21946853 11.2200001,10.0209959 L11.2200001,10.1335913 C11.2200001,8.44465945 12.4542001,7.65649123 14.0250001,8.55725491 Z" id="Shape" fill="#FFFFFF" opacity="0.25"></path>
        </g>
    </g>
</svg>