<svg xmlns="http://www.w3.org/2000/svg" width="185" height="62">
  <defs>
    <filter id="a" width="137.1%" height="405.6%" x="-18.5%" y="-152.8%" filterUnits="objectBoundingBox">
      <feGaussianBlur stdDeviation="3.215" in="SourceGraphic"/>
    </filter>
    <linearGradient id="b" x1="0%" x2="99.139%" y1="0%" y2="99.139%">
      <stop stop-color="#383F8C" offset="0%"/>
      <stop stop-color="#B250AB" offset="100%"/>
    </linearGradient>
  </defs>
  <g fill="none" fill-rule="evenodd">
    <g fill="#4D5F79">
      <path d="M77.38 25.62v-5.906h6.104V17.04H77.38v-3.936h6.69v-2.75h-9.963V25.62h3.272zm21.534-2.842h-6.42V10.353H89.22V25.62h9.694v-2.842zm8.106 2.84V10.354h-3.272V25.62h3.272zm18.353-10.3c-.102-2.65-2.1-5.245-6.162-5.245-4.19 0-6.66 2.752-6.66 6.923v1.88c0 3.98 2.02 7.034 6.62 7.034 4.62 0 6.24-3.076 6.24-5.603V17.31h-6.11v2.437h3.02v.795c0 1.398-1.18 2.56-3.09 2.56-2.41 0-3.36-1.8-3.36-4.238V17.03c0-2.84 1.39-4.16 3.33-4.16 1.63 0 2.83.916 3.03 2.45h3.18zm18.296 10.3V10.354h-3.28v6.106h-6.21v-6.107h-3.28V25.62h3.27v-6.387h6.2v6.386h3.27zm12.29 0V13.15h4.32v-2.795h-11.91v2.796h4.32v12.47h3.26zm-57.05 15.66h-6.42V28.853h-3.28V44.12h9.69v-2.842zm7.2-5.704v1.902c0 2.785 1.39 4.15 3.35 4.15 1.97 0 3.36-1.365 3.36-4.15v-1.902c0-2.784-1.39-4.227-3.37-4.227-1.97 0-3.35 1.443-3.35 4.227zm-3.33 1.89V35.61c0-4.34 2.5-7.035 6.69-7.035s6.68 2.718 6.68 7.035v1.857c0 4.305-2.51 6.945-6.71 6.945-4.19 0-6.67-2.64-6.67-6.945zm31.1-3.645c-.11-2.66-2.1-5.25-6.17-5.25-4.2 0-6.67 2.75-6.67 6.92v1.88c0 3.98 2.02 7.03 6.61 7.03 4.61 0 6.24-3.08 6.24-5.61V35.8h-6.12v2.437h3.01v.795c0 1.4-1.19 2.56-3.1 2.56-2.42 0-3.37-1.8-3.37-4.238v-1.83c0-2.84 1.39-4.16 3.33-4.16 1.626 0 2.834.915 3.026 2.45h3.183zm17.75 0c-.1-2.66-2.1-5.25-6.16-5.25-4.2 0-6.67 2.75-6.67 6.92v1.88c0 3.98 2.02 7.03 6.61 7.03 4.61 0 6.24-3.08 6.24-5.61V35.8h-6.12v2.437h3.01v.795c0 1.4-1.19 2.56-3.1 2.56-2.42 0-3.36-1.8-3.36-4.238v-1.83c0-2.84 1.38-4.16 3.32-4.16 1.625 0 2.832.915 3.024 2.45h3.186zm15.6 7.58h-6.82v-3.73h6.41v-2.51h-6.41v-3.59h6.81v-2.72h-10.05v15.27h10.05V41.4zm11.97-12.55c3.7 0 5.48 2.12 5.48 4.92 0 2.51-1.66 3.86-2.79 4.29l3.09 6.05h-3.64l-2.67-5.56h-2.54v5.56h-3.22V28.85h6.27zm-3.06 7.25h2.54c1.62 0 2.64-.78 2.64-2.29 0-1.59-1.11-2.4-2.6-2.4h-2.59v4.69z"/>
      <path d="M131 16.457h45.7c.78 0 1.41.626 1.41 1.41 0 .778-.63 1.41-1.41 1.41H131v-2.82zm32-7.928h1.778l5.333 7.92h-5.33L163 8.53zm0 18.67l1.778-7.93h5.333l-5.33 7.93H163z"/>
    </g>
    <g transform="translate(6)">
      <ellipse cx="26" cy="50.844" fill="#000" opacity=".229" filter="url(#a)" rx="26" ry="3.156"/>
      <rect width="52" height="52" fill="url(#b)" rx="10.4"/>
      <path fill="#FFF" fill-rule="nonzero" d="M26 45.5C15.232 45.5 6.5 36.768 6.5 26S15.232 6.5 26 6.5 45.5 15.232 45.5 26 36.768 45.5 26 45.5zm-6.787-34.775c-.043-.098-.157-.14-.25-.098-5.768 2.65-9.793 8.44-9.863 15.183 0 .103.08.19.19.19h24.613c.146 0 .287.07.374.19l5.59 7.475c.07.092.005.227-.114.227-17.057-.038-28.54-5.655-30.393-6.625-.098-.054-.217.028-.206.136C9.87 36.08 17.138 42.9 26 42.9c9.333 0 16.9-7.567 16.9-16.9 0-9.333-7.567-16.9-16.9-16.9-1.35 0-2.66.157-3.922.46-.097.022-.14.14-.08.223L32.706 24.1c.054.07 0 .17-.087.17h-7.11c-.18 0-.33-.102-.4-.26l-5.9-13.286z"/>
    </g>
  </g>
</svg>
