<?xml version="1.0" encoding="UTF-8"?>
<svg width="75px" height="75px" viewBox="0 0 75 75" version="1.1" xmlns="http://www.w3.org/2000/svg" xmlns:xlink="http://www.w3.org/1999/xlink">
    <!-- Generator: Sketch 46.2 (44496) - http://www.bohemiancoding.com/sketch -->
    <title>Combined Shape</title>
    <desc>Created with Sketch.</desc>
    <defs>
        <linearGradient x1="0%" y1="0%" x2="99.1390306%" y2="99.1390306%" id="linearGradient-1">
            <stop stop-color="#383F8C" offset="0%"></stop>
            <stop stop-color="#B250AB" offset="100%"></stop>
        </linearGradient>
    </defs>
    <g id="Page-1" stroke="none" stroke-width="1" fill="none" fill-rule="evenodd">
        <path d="M15,0 L60,0 C68.2842712,-1.52179594e-15 75,6.71572875 75,15 L75,60 C75,68.2842712 68.2842712,75 60,75 L15,75 L15,75 C6.71572875,75 1.01453063e-15,68.2842712 0,60 L0,15 L0,15 C-1.01453063e-15,6.71572875 6.71572875,1.52179594e-15 15,0 L15,0 Z M37.5,65.625 C53.03125,65.625 65.625,53.03125 65.625,37.5 C65.625,21.96875 53.03125,9.375 37.5,9.375 C21.96875,9.375 9.375,21.96875 9.375,37.5 C9.375,53.03125 21.96875,65.625 37.5,65.625 Z M27.7109375,15.46875 L36.2265625,34.6328125 C36.328125,34.859375 36.546875,35.0078125 36.796875,35.0078125 L47.046875,35.0078125 C47.171875,35.0078125 47.25,34.859375 47.171875,34.7578125 L31.7265625,14.109375 C31.640625,13.9921875 31.703125,13.8203125 31.84375,13.7890625 C33.6640625,13.3515625 35.5546875,13.125 37.5,13.125 C50.9609375,13.125 61.875,24.0390625 61.875,37.5 C61.875,50.9609375 50.9609375,61.875 37.5,61.875 C24.71875,61.875 14.234375,52.0390625 13.203125,39.5234375 C13.1875,39.3671875 13.359375,39.25 13.5,39.328125 C16.171875,40.7265625 32.734375,48.828125 57.3359375,48.8828125 C57.5078125,48.8828125 57.6015625,48.6875 57.5,48.5546875 L49.4375,37.7734375 C49.3125,37.6015625 49.109375,37.5 48.8984375,37.5 L13.3984375,37.5 C13.2421875,37.5 13.125,37.375 13.125,37.2265625 C13.2265625,27.5 19.03125,19.1484375 27.3515625,15.328125 C27.484375,15.265625 27.6484375,15.328125 27.7109375,15.46875 Z" id="Combined-Shape" fill="url(#linearGradient-1)"></path>
    </g>
</svg>